# xmcd
#
# Track frame offsets:
#   150
#   15081
#   36672
#   49172
#   66120
#   81225
#   100231
#   111401
#   134541
#   148811
#   161555
#   173995
#   192804
#   214619
#   231598
#   248489
#   274649
#
# Disc length: 4304 seconds
#
# Revision: 0
# Processed by: cddbd v1.5.2PL0 Copyright (c) Steve Scherf et al.
# Submitted via: uFREEDB ActiveX Control 1.5
#
DISCID=f510ce11
DTITLE=Marco Brasil - A Emoção do Rodeio
DYEAR=2004
DGENRE=Country
TTITLE0=Agito do meu povo
TTITLE1=Homem do meu tempo
TTITLE2=As andorinhas
TTITLE3=Mercedita
TTITLE4=Porque
TTITLE5=Não se vá
TTITLE6=Espuma da cerveja
TTITLE7=Como eu chorei
TTITLE8=Não acredito
TTITLE9=Pega Pega
TTITLE10=Saco de Ouro
TTITLE11=La cautiva
TTITLE12=Sem documento
TTITLE13=Carta ao meu pai
TTITLE14=A volta do filho
TTITLE15=Bens Materiais
TTITLE16=O sentido da vida
EXTD=
EXTT0=
EXTT1=
EXTT2=
EXTT3=
EXTT4=
EXTT5=
EXTT6=
EXTT7=
EXTT8=
EXTT9=
EXTT10=
EXTT11=
EXTT12=
EXTT13=
EXTT14=
EXTT15=
EXTT16=
PLAYORDER=
